<?xml version="1.0" standalone="no"?>
<!DOCTYPE svg PUBLIC "-//W3C//DTD SVG 20010904//EN"
 "http://www.w3.org/TR/2001/REC-SVG-20010904/DTD/svg10.dtd">
<svg version="1.0" xmlns="http://www.w3.org/2000/svg"
 width="392.000000pt" height="392.000000pt" viewBox="0 0 392.000000 392.000000"
 preserveAspectRatio="xMidYMid meet">
<metadata>
Created by potrace 1.14, written by Peter Selinger 2001-2017
</metadata>
<g transform="translate(0.000000,392.000000) scale(0.100000,-0.100000)"
fill="#000000" stroke="none">
<path d="M1815 3179 c-147 -17 -321 -83 -462 -175 -75 -49 -238 -212 -287
-287 -101 -155 -159 -319 -178 -498 -24 -236 38 -494 166 -686 19 -29 37 -60
40 -70 4 -14 -81 -104 -344 -367 -289 -289 -349 -353 -344 -370 8 -28 135
-156 154 -156 9 0 36 20 60 45 24 25 47 45 51 45 4 0 28 -21 53 -46 25 -25 46
-43 46 -41 0 3 13 -7 29 -21 35 -33 59 -52 64 -52 2 0 42 -25 88 -56 235 -157
523 -260 824 -294 416 -46 880 77 1235 328 122 86 326 290 412 412 176 248
303 587 325 863 l6 78 -77 77 -76 78 26 119 c24 110 32 201 19 214 -13 12
-100 -3 -225 -38 -74 -21 -177 -49 -228 -62 -108 -28 -118 -37 -101 -104 14
-56 36 -70 86 -56 20 6 40 8 45 5 5 -4 -43 -59 -108 -125 -65 -65 -120 -117
-121 -115 -2 2 3 32 11 67 61 269 3 575 -155 819 -55 84 -215 244 -299 299
-221 143 -471 201 -735 170z"/>
</g>
</svg>
